# xmcd
#
# Track frame offsets:
#	150
#	2477
#	6908
#	28917
#	31571
#	88260
#	102718
#	127865
#	131233
#	250658
#
# Disc length: 3381 seconds
#
# Revision: 0
# Processed by: cddbd v1.5.2PL0 Copyright (c) Steve Scherf et al.
# Submitted via: EZCDAudioConverter 8.0.2.1
#
DISCID=780d330a
DTITLE=Hài Vân Sơn - Live Show 03
DYEAR=2002
DGENRE=East Asia
TTITLE0=MC Việt Thảo - Lời mở đầu
TTITLE1=MC Việt Thảo - Giới thiệu
TTITLE2=Vân Sơn - Nhất nghệ tinh
TTITLE3=MC Việt Thảo - Giới thiệu
TTITLE4=Quang Minh and Hồng Đào - Mộng làm giàu
TTITLE5=MC Việt Thảo - Giới thiệu
TTITLE6=Vân Sơn - Mua nhà trả góp
TTITLE7=MC Việt Thảo - Giới thiệu
TTITLE8=Vân Sơn and Hoài Linh - LK Chỉ định
TTITLE9=MC Việt Thảo - Kết thúc
EXTD=
EXTT0=
EXTT1=
EXTT2=
EXTT3=
EXTT4=
EXTT5=
EXTT6=
EXTT7=
EXTT8=
EXTT9=
PLAYORDER=
